<svg id="visual" viewBox="0 0 900 450" width="900" height="450" xmlns="http://www.w3.org/2000/svg" xmlns:xlink="http://www.w3.org/1999/xlink" version="1.1"><path d="M0 120L21.5 120.5C43 121 86 122 128.8 126C171.7 130 214.3 137 257.2 144.5C300 152 343 160 385.8 161.2C428.7 162.3 471.3 156.7 514.2 151.5C557 146.3 600 141.7 642.8 141C685.7 140.3 728.3 143.7 771.2 144.3C814 145 857 143 878.5 142L900 141L900 0L878.5 0C857 0 814 0 771.2 0C728.3 0 685.7 0 642.8 0C600 0 557 0 514.2 0C471.3 0 428.7 0 385.8 0C343 0 300 0 257.2 0C214.3 0 171.7 0 128.8 0C86 0 43 0 21.5 0L0 0Z" fill="#ffffff"></path><path d="M0 146L21.5 146C43 146 86 146 128.8 144.8C171.7 143.7 214.3 141.3 257.2 136.3C300 131.3 343 123.7 385.8 117.7C428.7 111.7 471.3 107.3 514.2 108.8C557 110.3 600 117.7 642.8 123C685.7 128.3 728.3 131.7 771.2 131.5C814 131.3 857 127.7 878.5 125.8L900 124L900 0L878.5 0C857 0 814 0 771.2 0C728.3 0 685.7 0 642.8 0C600 0 557 0 514.2 0C471.3 0 428.7 0 385.8 0C343 0 300 0 257.2 0C214.3 0 171.7 0 128.8 0C86 0 43 0 21.5 0L0 0Z" fill="#fbccc5"></path><path d="M0 96L21.5 95.7C43 95.3 86 94.7 128.8 97.5C171.7 100.3 214.3 106.7 257.2 102.7C300 98.7 343 84.3 385.8 77.3C428.7 70.3 471.3 70.7 514.2 73.2C557 75.7 600 80.3 642.8 83.2C685.7 86 728.3 87 771.2 91.5C814 96 857 104 878.5 108L900 112L900 0L878.5 0C857 0 814 0 771.2 0C728.3 0 685.7 0 642.8 0C600 0 557 0 514.2 0C471.3 0 428.7 0 385.8 0C343 0 300 0 257.2 0C214.3 0 171.7 0 128.8 0C86 0 43 0 21.5 0L0 0Z" fill="#ef9a8d"></path><path d="M0 48L21.5 48.5C43 49 86 50 128.8 54.3C171.7 58.7 214.3 66.3 257.2 69C300 71.7 343 69.3 385.8 66.5C428.7 63.7 471.3 60.3 514.2 58.7C557 57 600 57 642.8 61.2C685.7 65.3 728.3 73.7 771.2 76.2C814 78.7 857 75.3 878.5 73.7L900 72L900 0L878.5 0C857 0 814 0 771.2 0C728.3 0 685.7 0 642.8 0C600 0 557 0 514.2 0C471.3 0 428.7 0 385.8 0C343 0 300 0 257.2 0C214.3 0 171.7 0 128.8 0C86 0 43 0 21.5 0L0 0Z" fill="#dd6759"></path><path d="M0 41L21.5 38.2C43 35.3 86 29.7 128.8 29.7C171.7 29.7 214.3 35.3 257.2 35.3C300 35.3 343 29.7 385.8 26C428.7 22.3 471.3 20.7 514.2 21C557 21.3 600 23.7 642.8 26.3C685.7 29 728.3 32 771.2 31C814 30 857 25 878.5 22.5L900 20L900 0L878.5 0C857 0 814 0 771.2 0C728.3 0 685.7 0 642.8 0C600 0 557 0 514.2 0C471.3 0 428.7 0 385.8 0C343 0 300 0 257.2 0C214.3 0 171.7 0 128.8 0C86 0 43 0 21.5 0L0 0Z" fill="#c62828"></path></svg>