<svg width="592" height="128" viewBox="0 0 592 128" fill="none" xmlns="http://www.w3.org/2000/svg">
<path d="M188.48 87.784C188.672 88.424 188.768 89.032 188.768 89.608C188.768 90.632 188.448 91.464 187.808 92.104C187.232 92.68 186.432 92.968 185.408 92.968C185.024 92.968 184.704 92.936 184.448 92.872C181.568 92.232 179.296 91.528 177.632 90.76C176.352 90.184 173.984 88.744 170.528 86.44C167.904 84.712 165.728 83.368 164 82.408C161.76 81.192 159.36 80.36 156.8 79.912C155.648 79.72 152.928 79.4 148.64 78.952C146.72 78.824 145.312 78.696 144.416 78.568L142.688 92.776L142.784 94.312C142.784 96.616 142.496 98.152 141.92 98.92C141.408 99.688 140.32 100.072 138.656 100.072C136.928 100.072 135.424 99.528 134.144 98.44C132.864 97.352 132.224 96.008 132.224 94.408C132.224 89.544 132.48 85.224 132.992 81.448C134.784 69.864 138.912 57.832 145.376 45.352C149.024 38.376 154.624 33 162.176 29.224C164.608 28.008 167.072 27.4 169.568 27.4C172.128 27.4 174.496 28.072 176.672 29.416C178.912 30.696 180.768 32.584 182.24 35.08C183.584 37.32 184.256 39.496 184.256 41.608C184.256 44.552 183.104 47.528 180.8 50.536C178.048 54.12 174.144 59.208 169.088 65.8L162.848 73.864C162.912 73.864 162.976 73.96 163.04 74.152C163.168 74.28 163.296 74.408 163.424 74.536L165.536 75.688C170.848 78.568 174.752 80.84 177.248 82.504C179.68 83.976 182.272 84.712 185.024 84.712C185.856 84.712 186.496 84.68 186.944 84.616C187.136 84.936 187.392 85.416 187.712 86.056C188.032 86.696 188.288 87.272 188.48 87.784ZM152.96 68.776C155.584 65.832 158.208 62.76 160.832 59.56C163.52 56.36 165.888 53.352 167.936 50.536C168.768 49.384 169.472 48.168 170.048 46.888C170.624 45.544 171.136 44.2 171.584 42.856C172.096 41.512 172.448 40.552 172.64 39.976C172.704 39.784 172.736 39.464 172.736 39.016C172.736 38.504 172.672 37.864 172.544 37.096C172.416 36.328 172.32 35.784 172.256 35.464C167.584 36.872 163.328 39.752 159.488 44.104C155.648 48.456 152.608 53.288 150.368 58.6C148.192 63.912 147.072 68.488 147.008 72.328C148.288 72.456 149.28 72.232 149.984 71.656C150.752 71.08 151.744 70.12 152.96 68.776ZM220.012 90.568C218.028 91.784 215.756 92.392 213.196 92.392C210.38 92.392 207.66 91.688 205.036 90.28C202.476 88.808 200.428 86.728 198.892 84.04C197.356 81.352 196.716 78.28 196.972 74.824L197.452 72.52C197.836 70.216 198.156 68.52 198.412 67.432C198.988 65.064 200.14 63.4 201.868 62.44C203.596 61.48 205.9 60.712 208.78 60.136C210.636 59.752 212.46 59.56 214.252 59.56C219.884 59.56 224.62 61.448 228.46 65.224C230.508 67.272 231.532 69.768 231.532 72.712C231.532 75.592 230.476 78.696 228.364 82.024C225.932 85.8 223.148 88.648 220.012 90.568ZM211.948 64.456C210.924 66.952 209.836 70.056 208.684 73.768L207.724 76.648L208.396 76.936C208.396 77.384 208.396 78.088 208.396 79.048C208.46 79.944 208.588 80.712 208.78 81.352C209.484 83.336 210.284 84.552 211.18 85C211.564 85.192 212.108 85.096 212.812 84.712C213.58 84.328 214.252 83.88 214.828 83.368C215.724 82.6 217.164 81 219.148 78.568C220.62 76.904 221.356 74.92 221.356 72.616C221.356 70.632 220.78 68.84 219.628 67.24C218.54 65.64 217.004 64.552 215.02 63.976C214.828 63.912 214.476 63.88 213.964 63.88C212.748 63.88 212.076 64.072 211.948 64.456ZM275.115 84.52C275.371 84.648 276.459 85.288 278.379 86.44C276.395 87.784 274.379 88.456 272.331 88.456C271.179 88.456 270.059 88.296 268.971 87.976C267.883 87.592 266.795 87.176 265.707 86.728C264.619 86.28 263.787 85.928 263.211 85.672C261.355 84.904 258.475 83.304 254.571 80.872C253.547 80.104 252.523 79.464 251.499 78.952L248.811 77.608C248.683 77.992 248.427 78.536 248.043 79.24C247.723 79.944 247.563 80.552 247.563 81.064V86.92C247.563 92.104 247.659 96.008 247.851 98.632C247.979 99.912 248.043 100.776 248.043 101.224C248.043 101.992 247.883 102.6 247.563 103.048C247.307 103.56 246.795 103.944 246.027 104.2C245.323 104.456 244.459 104.328 243.435 103.816C242.411 103.304 241.483 102.6 240.651 101.704C239.883 100.808 239.499 99.976 239.499 99.208C239.179 92.808 239.019 87.048 239.019 81.928C239.147 64.2 239.339 46.504 239.595 28.84C239.595 27.304 240.139 26.024 241.227 25C242.379 23.912 243.755 23.368 245.355 23.368C247.019 23.368 248.459 24.008 249.675 25.288C250.891 26.504 251.435 27.912 251.307 29.512C250.923 33.416 250.283 37.512 249.387 41.8C249.259 42.248 249.195 42.856 249.195 43.624C249.195 44.776 249.675 45.352 250.635 45.352C251.019 45.352 251.691 45.192 252.651 44.872C253.995 44.424 255.179 44.2 256.203 44.2C259.147 44.072 261.419 44.648 263.019 45.928C264.683 47.208 265.515 49 265.515 51.304C265.515 53.352 264.875 55.528 263.595 57.832C261.931 60.904 259.563 64.296 256.491 68.008C255.531 69.16 255.051 70.184 255.051 71.08C255.051 71.976 255.723 73.064 257.067 74.344C259.499 76.456 262.123 78.28 264.939 79.816C267.819 81.352 271.211 82.92 275.115 84.52ZM282.577 61.192C282.129 60.68 281.809 60.136 281.617 59.56C281.489 58.984 281.361 58.184 281.233 57.16C281.809 55.816 282.865 55.144 284.401 55.144C285.169 55.272 285.713 55.336 286.033 55.336C287.313 55.336 288.113 54.952 288.433 54.184C288.753 53.416 288.913 52.52 288.913 51.496C288.913 50.472 288.913 49.672 288.913 49.096L289.201 43.336C289.265 42.056 289.329 40.488 289.393 38.632C289.521 36.712 289.649 34.504 289.777 32.008C289.841 30.664 290.161 29.672 290.737 29.032C291.377 28.392 292.241 28.072 293.329 28.072C294.097 28.072 294.705 28.136 295.153 28.264C297.777 28.84 299.537 29.672 300.433 30.76C301.329 31.848 301.937 33.48 302.257 35.656C302.321 36.104 302.257 37.032 302.065 38.44L300.337 53.416C300.273 53.8 300.177 54.28 300.049 54.856C299.921 55.368 299.857 55.752 299.857 56.008C299.857 56.584 300.177 56.968 300.817 57.16C301.457 57.352 302.641 57.416 304.369 57.352C307.313 56.712 309.553 56.296 311.089 56.104C311.409 56.04 311.921 56.008 312.625 56.008C313.393 56.008 313.905 56.104 314.161 56.296C314.417 56.424 314.609 56.808 314.737 57.448C314.929 58.024 315.025 58.696 315.025 59.464C315.025 60.168 314.929 60.808 314.737 61.384C314.609 61.96 314.417 62.28 314.161 62.344C312.433 62.856 310.385 63.272 308.017 63.592C305.201 64.104 303.121 64.552 301.777 64.936C301.073 65.128 300.369 65.608 299.665 66.376C298.961 67.144 298.577 67.848 298.513 68.488C298.385 71.624 298.289 74.824 298.225 78.088C298.161 80.584 298.257 83.08 298.513 85.576C298.705 87.688 299.121 89.224 299.761 90.184C300.401 91.08 301.361 91.528 302.641 91.528C303.665 91.528 305.137 91.176 307.057 90.472C308.081 90.024 308.977 89.8 309.745 89.8C310.961 89.8 311.825 90.472 312.337 91.816C312.529 92.264 312.625 92.712 312.625 93.16C312.625 93.992 312.305 94.664 311.665 95.176C311.089 95.688 310.289 96.136 309.265 96.52C307.345 97.224 305.393 97.608 303.409 97.672C300.721 97.672 298.193 97.032 295.825 95.752C293.457 94.408 291.569 92.552 290.161 90.184C288.817 87.816 288.241 85.096 288.433 82.024C288.497 80.808 288.529 78.888 288.529 76.264C288.529 72.104 288.369 67.88 288.049 63.592C287.985 63.208 287.761 62.952 287.377 62.824C286.993 62.632 286.353 62.44 285.457 62.248C283.985 61.992 283.025 61.64 282.577 61.192ZM357.206 64.456C357.782 65.608 358.294 66.92 358.742 68.392C359.254 69.8 359.606 70.728 359.798 71.176L360.662 73.672C359.894 77.32 359.126 80.328 358.358 82.696C357.59 85 356.47 87.176 354.998 89.224C353.526 91.208 351.51 92.84 348.95 94.12C346.582 95.336 344.054 95.944 341.366 95.944C338.422 95.944 335.574 95.272 332.822 93.928C330.134 92.584 327.862 90.728 326.006 88.36C324.15 85.928 323.062 83.208 322.742 80.2C322.614 78.664 322.55 77.48 322.55 76.648C322.55 74.408 322.87 72.36 323.51 70.504C324.214 68.648 325.43 66.952 327.158 65.416C327.67 64.968 328.246 64.104 328.886 62.824C329.462 61.672 330.006 60.808 330.518 60.232C333.206 57.352 336.406 55.912 340.118 55.912C341.974 55.912 344.15 56.328 346.646 57.16C346.966 57.288 348.022 57.672 349.814 58.312C351.67 58.952 353.206 59.784 354.422 60.808C355.638 61.832 356.566 63.048 357.206 64.456ZM340.502 61.288C338.134 63.208 336.438 65.512 335.414 68.2C334.454 70.824 333.59 74.376 332.822 78.856C332.95 79.368 333.238 80.456 333.686 82.12C334.134 83.784 334.678 85.32 335.318 86.728C336.022 88.456 337.27 89.32 339.062 89.32C339.382 89.32 339.99 89.256 340.886 89.128C342.87 88.744 344.598 87.624 346.07 85.768C347.606 83.848 348.79 81.608 349.622 79.048C350.454 76.488 350.87 74.12 350.87 71.944C350.87 67.656 349.11 64.04 345.59 61.096C344.694 60.392 343.894 60.04 343.19 60.04C342.422 60.04 341.526 60.456 340.502 61.288Z" fill="black"/>
<path d="M420.861 34.984C424.893 39.016 427.997 43.08 430.173 47.176C432.413 51.208 433.533 55.464 433.533 59.944C433.533 64.616 432.317 69.48 429.885 74.536C426.941 80.744 422.141 86.248 415.485 91.048C409.853 95.208 403.677 98.44 396.957 100.744C390.301 103.048 382.877 104.84 374.685 106.12C374.365 106.184 373.917 106.216 373.341 106.216C371.037 106.216 369.053 105.416 367.389 103.816C365.725 102.28 364.445 100.104 363.549 97.288C371.933 96.072 379.581 94.344 386.493 92.104C393.469 89.864 399.965 86.792 405.981 82.888C415.965 76.552 422.237 67.464 424.797 55.624C424.989 54.792 425.085 53.96 425.085 53.128C425.085 50.76 424.253 48.488 422.589 46.312C420.925 43.944 418.941 42.152 416.637 40.936C414.333 39.72 411.293 38.504 407.517 37.288C405.085 36.52 402.589 36.136 400.029 36.136C397.533 36.136 394.973 36.456 392.349 37.096C391.645 37.352 390.877 37.48 390.045 37.48C387.677 37.48 385.565 36.36 383.709 34.12C382.813 32.904 382.365 31.752 382.365 30.664C382.365 29.768 382.589 29 383.037 28.36C383.549 27.656 384.317 27.08 385.341 26.632C389.053 25.096 392.285 24.328 395.037 24.328C396.125 24.328 397.405 24.488 398.877 24.808C403.741 25.896 407.933 27.208 411.453 28.744C415.037 30.216 418.173 32.296 420.861 34.984ZM385.629 87.112C383.261 86.536 381.661 85.832 380.829 85C380.061 84.104 379.645 82.664 379.581 80.68C379.581 78.312 379.741 76.328 380.061 74.728C381.469 67.048 383.485 56.424 386.109 42.856C388.861 43.24 391.005 44.264 392.541 45.928C394.141 47.592 394.941 49.64 394.941 52.072C394.941 53.032 394.813 53.992 394.557 54.952C393.469 58.984 392.509 62.984 391.677 66.952L390.141 74.056L389.565 76.84C389.053 79.336 388.541 81.32 388.029 82.792C387.517 84.264 386.717 85.704 385.629 87.112ZM472.393 92.104C471.817 91.848 471.241 91.72 470.665 91.72C470.089 91.72 469.577 91.88 469.129 92.2C468.745 92.456 468.297 92.872 467.785 93.448C467.017 94.216 466.217 94.856 465.385 95.368C464.617 95.816 463.209 96.232 461.161 96.616C460.265 96.744 459.529 96.808 458.953 96.808C456.265 96.808 453.449 96.232 450.505 95.08C447.625 93.864 445.577 92.424 444.361 90.76C443.081 88.968 442.473 87.048 442.537 85C442.601 81.928 443.881 78.856 446.377 75.784C448.809 72.84 451.017 70.76 453.001 69.544C455.049 68.328 457.833 67.56 461.353 67.24C462.121 67.24 463.209 67.112 464.617 66.856C466.089 66.6 466.825 66.248 466.825 65.8C466.825 64.904 466.409 64.104 465.577 63.4C464.809 62.632 463.209 62.248 460.777 62.248C459.881 62.248 458.537 62.312 456.745 62.44C454.953 62.568 453.705 62.632 453.001 62.632C450.825 62.632 449.257 62.28 448.297 61.576C448.041 61.448 447.913 60.84 447.913 59.752C447.913 57.832 448.585 56.616 449.929 56.104C452.681 55.08 455.529 54.536 458.473 54.472C462.185 54.472 465.609 55.304 468.745 56.968C471.945 58.568 474.281 60.584 475.753 63.016C477.225 65.448 478.185 68.808 478.633 73.096C479.145 77.896 479.401 84.008 479.401 91.432C479.401 93.48 479.113 94.664 478.537 94.984C478.025 95.304 477.545 95.464 477.097 95.464C476.521 95.464 475.977 95.304 475.465 94.984C475.017 94.6 474.505 94.088 473.929 93.448C473.353 92.744 472.841 92.296 472.393 92.104ZM457.225 90.952C460.233 90.056 463.177 88.616 466.057 86.632C466.697 86.184 467.273 85.608 467.785 84.904C468.297 84.2 468.617 83.752 468.745 83.56C468.873 83.368 468.969 82.824 469.033 81.928C469.161 80.968 469.193 80.2 469.129 79.624C469.065 79.432 468.937 78.92 468.745 78.088C468.617 77.256 468.393 76.52 468.073 75.88C467.753 75.368 467.241 74.888 466.536 74.44C465.833 73.992 465.193 73.8 464.617 73.864C463.401 73.928 462.089 74.376 460.681 75.208C459.273 76.04 457.961 77.16 456.745 78.568C455.529 80.04 454.569 81.544 453.865 83.08C453.225 84.552 452.905 85.928 452.905 87.208C453.033 88.936 453.513 90.088 454.345 90.664C454.793 90.984 455.337 91.144 455.977 91.144C456.489 91.144 456.905 91.08 457.225 90.952ZM511.501 54.376C514.445 54.376 516.845 55.24 518.701 56.968C520.621 58.632 521.933 60.872 522.637 63.688C523.021 65.224 523.149 66.952 523.021 68.872C522.957 69.96 522.893 71.496 522.829 73.48C522.765 75.144 522.541 77.608 522.157 80.872C521.773 84.072 521.549 86.472 521.485 88.072C521.421 89.224 521.389 90.92 521.389 93.16L521.485 100.936C520.269 101.448 519.181 101.704 518.221 101.704C517.261 101.704 516.269 101.384 515.245 100.744C514.541 100.232 514.061 99.912 513.805 99.784C513.613 99.656 513.325 99.112 512.941 98.152L512.173 96.328L511.693 94.12C508.109 94.888 505.997 95.336 505.357 95.464C504.461 95.528 503.757 95.56 503.245 95.56C500.877 95.56 498.573 94.984 496.333 93.832C494.157 92.68 492.397 91.08 491.053 89.032C489.773 86.984 489.101 84.776 489.037 82.408C488.973 80.168 489.773 78.376 491.437 77.032C494.957 74.216 498.381 72.808 501.709 72.808C503.373 72.808 505.133 73.192 506.989 73.96C507.949 74.344 509.997 75.208 513.133 76.552L513.517 73.864C513.901 71.56 514.093 69.704 514.093 68.296C514.093 66.184 513.613 64.2 512.653 62.344C511.693 62.024 510.989 61.928 510.541 62.056C508.877 62.312 507.213 62.664 505.549 63.112C503.885 63.496 501.613 63.688 498.733 63.688C497.965 63.688 497.197 63.4 496.429 62.824C495.661 62.184 495.309 61.48 495.373 60.712C495.565 59.688 496.141 58.536 497.101 57.256C497.677 56.552 498.477 56.136 499.501 56.008C500.717 55.816 501.709 55.688 502.477 55.624C506.445 54.792 509.453 54.376 511.501 54.376ZM503.341 87.688C504.877 87.24 506.157 86.728 507.181 86.152C508.205 85.512 509.101 84.584 509.869 83.368C507.565 81.576 505.805 80.328 504.589 79.624C503.373 78.92 502.189 78.568 501.037 78.568C500.589 78.568 500.045 78.664 499.405 78.856C498.765 79.048 498.285 79.336 497.965 79.72C497.389 80.424 497.101 81.416 497.101 82.696C497.101 83.848 497.325 84.84 497.773 85.672C498.285 86.376 498.925 86.92 499.693 87.304C500.461 87.688 501.261 87.88 502.093 87.88C502.349 87.88 502.765 87.816 503.341 87.688ZM548.566 60.808C548.566 61.192 548.502 61.704 548.374 62.344C548.246 62.92 548.214 63.304 548.278 63.496C552.694 62.536 556.438 62.056 559.51 62.056C564.31 62.056 567.926 64.36 570.358 68.968C572.342 72.872 573.334 77.192 573.334 81.928C573.334 83.144 573.206 84.904 572.95 87.208C572.758 88.744 572.15 89.992 571.126 90.952C570.102 91.848 568.886 92.296 567.478 92.296C566.006 92.296 564.95 92.04 564.31 91.528C563.734 90.952 563.382 90.312 563.254 89.608C563.19 88.904 563.158 87.784 563.158 86.248L563.062 84.232C562.934 80.392 562.678 77.064 562.294 74.248C562.102 73.096 561.654 72.296 560.95 71.848C560.31 71.336 559.446 71.08 558.358 71.08C557.334 71.08 556.118 71.24 554.71 71.56C552.534 72.136 551.062 72.584 550.294 72.904C549.59 73.224 548.534 73.896 547.126 74.92C546.678 75.24 546.358 75.88 546.166 76.84C545.974 77.8 545.878 78.344 545.878 78.472C545.046 82.568 544.15 87.464 543.19 93.16C543.126 93.416 542.998 94.024 542.806 94.984C542.614 95.944 542.23 96.616 541.654 97C541.142 97.448 540.374 97.608 539.35 97.48C535.318 96.968 533.27 95.272 533.206 92.392C533.142 88.68 533.43 84.296 534.07 79.24C534.518 75.592 534.934 72.648 535.318 70.408C535.446 69.384 535.606 68.136 535.798 66.664C536.054 65.192 536.278 63.496 536.47 61.576C536.662 60.104 536.854 59.016 537.046 58.312C537.238 57.608 537.686 57.032 538.39 56.584C539.094 56.072 540.182 55.816 541.654 55.816C543.51 55.816 545.046 56.232 546.262 57.064C547.478 57.896 548.246 59.08 548.566 60.616V60.808Z" fill="#C62828"/>
<path d="M88.1797 22.8203C90.0813 23.9164 91.9797 25.0181 93.875 26.125C95.3368 26.97 95.3368 26.97 96.8281 27.832C99.2216 29.2165 101.612 30.6059 104 32C101.736 36.6368 99.4306 41.2495 97.085 45.8457C96.135 47.732 95.2243 49.6381 94.3203 51.5469C88.4692 63.0334 79.3902 71.3531 70 80C69.4383 80.5201 68.8766 81.0403 68.2979 81.5762C61.3615 87.8936 61.3615 87.8936 56.8516 88.2461C54 88 54 88 52.125 86.9375C50.3367 83.8577 50.6678 81.5094 51 78C52.4642 75.5374 53.8487 73.5148 55.625 71.3125C60.309 65.1763 63.8193 59.0596 67 52C62.7173 49.1448 59.0192 49.1739 54 50C50.8986 51.3522 49.4144 52.9319 48 56C47.4897 59.6516 47.3126 63.169 47.3008 66.8555C46.9584 70.4353 46.6504 70.8018 44 73C42.4645 73.9414 40.8998 74.8364 39.3125 75.6875C38.5043 76.1245 37.696 76.5615 36.8633 77.0117C35.941 77.5009 35.941 77.5009 35 78C34.466 74.1059 33.9501 70.2095 33.4375 66.3125C33.286 65.2097 33.1346 64.1069 32.9785 62.9707C32.8399 61.904 32.7014 60.8373 32.5586 59.7383C32.4277 58.759 32.2968 57.7797 32.1619 56.7708C31.7573 49.8458 34.5896 46.6773 39.0064 41.5994C40.9983 39.3092 42.9686 37.0416 44.7969 34.6172C49.4849 28.5135 54.9093 26.5836 62 24C63.3032 23.4395 64.6026 22.8702 65.8984 22.293C66.5591 22.0057 67.2197 21.7184 67.9004 21.4224C69.1884 20.8615 70.4713 20.2887 71.7481 19.7026C78.4422 16.882 82.2577 19.539 88.1797 22.8203Z" fill="#C62727"/>
<path d="M50 73C49.6494 73.8456 49.2988 74.6913 48.9375 75.5625C47.8463 79.5635 47.9622 81.9968 49 86C51.0833 88.932 52.4578 89.8232 55.875 90.9375C59.7524 91.015 61.7302 90.0345 65 88C66.018 87.0183 67.0247 86.0241 68 85C68.66 85 69.32 85 70 85C71.6848 90.0542 71.5802 94.2846 69.375 99.125C66.7368 103.935 63.4096 106.703 58.5625 109.312C52.331 110.984 46.5701 110.148 41 107C37.2424 103.612 34.2897 99.4902 33.6992 94.4141C33.676 88.8865 33.6763 84.6532 37 80C40.7678 76.2217 44.531 73 50 73Z" fill="#C62727"/>
</svg>
